<?xml version="1.0" standalone="no"?>
<!DOCTYPE svg PUBLIC "-//W3C//DTD SVG 20010904//EN"
 "http://www.w3.org/TR/2001/REC-SVG-20010904/DTD/svg10.dtd">
<svg version="1.0" xmlns="http://www.w3.org/2000/svg"
 width="1024.000000pt" height="1024.000000pt" viewBox="0 0 1024.000000 1024.000000"
 preserveAspectRatio="xMidYMid meet">
<metadata>
Created by potrace 1.11, written by Peter Selinger 2001-2013
</metadata>
<g transform="translate(0.000000,1024.000000) scale(0.100000,-0.100000)"
fill="#000000" stroke="none">
<path d="M6705 9722 c-55 -74 -105 -139 -110 -146 -6 -6 -76 -96 -155 -201
-80 -104 -150 -197 -157 -205 -7 -8 -148 -193 -314 -410 -166 -217 -350 -458
-409 -535 -59 -77 -198 -259 -309 -405 -111 -146 -208 -272 -214 -280 -7 -8
-57 -73 -112 -145 -54 -71 -120 -157 -145 -190 -72 -93 -462 -604 -504 -660
-21 -27 -49 -63 -62 -80 -13 -16 -135 -176 -272 -355 -136 -179 -342 -449
-458 -600 -116 -151 -228 -297 -248 -325 -21 -27 -49 -63 -62 -80 -27 -35
-177 -232 -284 -371 -41 -54 -118 -155 -171 -224 -146 -191 -252 -331 -282
-371 l-27 -36 1006 1 c553 1 1010 -1 1015 -4 4 -3 -8 -62 -27 -130 -19 -69
-36 -134 -39 -146 -3 -11 -57 -209 -120 -440 -64 -230 -118 -430 -121 -443 -3
-13 -34 -130 -70 -260 -36 -130 -74 -270 -85 -311 -11 -41 -27 -98 -35 -126
-8 -28 -16 -60 -19 -70 -2 -11 -112 -415 -244 -899 -132 -483 -239 -881 -237
-882 2 -2 92 112 200 254 108 142 208 272 220 288 13 17 41 53 62 80 20 28 72
95 114 150 142 186 465 609 562 735 52 69 246 323 432 565 185 242 365 478
401 525 36 47 145 189 242 317 236 307 310 403 423 553 159 208 814 1064 827
1080 7 8 206 269 443 580 237 311 437 572 444 580 7 9 15 21 19 26 4 8 -298
11 -1009 10 l-1015 -1 6 25 c4 14 231 850 506 1858 275 1009 499 1835 497
1836 -2 2 -48 -58 -103 -132z"/>
<path d="M4928 9184 c-2 -1 -52 -5 -112 -9 -60 -4 -118 -9 -130 -11 -11 -2
-46 -7 -76 -10 -210 -21 -520 -91 -775 -175 -1276 -422 -2279 -1477 -2634
-2772 -43 -158 -74 -300 -97 -442 -2 -16 -6 -41 -9 -55 -45 -255 -52 -750 -15
-1061 16 -134 47 -327 55 -339 2 -3 6 -23 9 -45 4 -22 14 -67 22 -100 9 -33
17 -67 19 -75 22 -112 137 -439 220 -625 87 -195 230 -450 352 -627 52 -77
204 -279 228 -304 5 -6 35 -40 64 -75 57 -67 316 -328 386 -389 69 -60 186
-154 290 -231 116 -86 315 -213 322 -205 4 4 94 344 123 466 4 19 17 71 29
114 12 44 21 84 21 91 0 6 -37 38 -82 70 -46 33 -88 64 -94 70 -6 5 -29 24
-50 40 -191 149 -417 382 -582 601 -340 451 -578 1027 -648 1564 -3 30 -8 66
-10 80 -25 193 -25 594 1 790 2 14 6 45 9 70 3 25 8 56 11 70 3 14 8 45 11 70
3 25 8 48 10 51 2 3 6 21 9 40 22 126 99 378 170 555 175 435 427 814 760
1142 72 70 154 148 184 172 29 25 59 50 65 55 24 23 175 134 246 182 169 113
370 223 545 297 50 22 104 45 122 52 127 55 534 168 648 179 12 2 118 18 125
20 6 1 161 17 200 20 14 2 30 3 37 4 6 0 110 130 230 287 120 158 223 292 228
298 6 6 23 28 38 49 24 32 26 37 10 38 -10 0 -27 3 -38 5 -21 5 -443 13 -447
8z"/>
<path d="M7177 8613 c-3 -5 -32 -109 -66 -233 -33 -124 -74 -273 -90 -332
l-29 -106 52 -35 c51 -34 181 -134 266 -205 113 -94 303 -285 400 -402 34 -41
69 -84 78 -95 10 -11 28 -36 42 -55 13 -19 27 -37 30 -40 16 -12 136 -200 203
-316 151 -264 269 -553 342 -842 29 -114 56 -255 71 -367 3 -27 8 -59 10 -69
24 -130 24 -638 0 -786 -2 -14 -7 -52 -11 -85 -4 -32 -9 -68 -11 -80 -6 -27
-23 -114 -29 -145 -9 -48 -13 -65 -25 -110 -7 -25 -14 -52 -15 -60 -21 -89
-103 -331 -146 -427 -11 -23 -19 -44 -19 -48 0 -12 -150 -304 -190 -370 -82
-136 -190 -291 -277 -400 -109 -137 -376 -406 -503 -507 -296 -235 -516 -364
-905 -529 -82 -35 -339 -117 -415 -132 -14 -3 -34 -8 -45 -10 -137 -35 -291
-60 -440 -73 -44 -4 -87 -8 -95 -10 -8 -1 -20 -3 -26 -3 -6 -1 -31 -27 -55
-58 -24 -32 -47 -60 -50 -63 -3 -3 -25 -32 -49 -64 -24 -33 -49 -67 -56 -75
-45 -55 -311 -407 -309 -409 20 -22 609 -19 725 3 11 2 46 7 78 10 83 9 156
19 217 31 11 3 36 7 55 10 19 3 51 9 70 14 19 5 46 11 60 14 104 18 469 129
565 171 17 7 71 30 120 50 563 234 1076 609 1500 1095 127 146 286 365 408
563 88 143 215 403 294 600 68 173 170 513 197 662 60 322 79 522 80 810 0
169 -11 431 -19 445 -1 3 -6 34 -9 70 -4 36 -11 90 -16 120 -5 30 -12 71 -15
90 -40 239 -123 530 -227 795 -53 133 -225 487 -240 493 -4 2 -8 8 -8 13 0 14
-124 212 -204 324 -238 337 -563 671 -891 917 -176 132 -370 255 -378 241z"/>
</g>
</svg>
