<svg xmlns="http://www.w3.org/2000/svg" xmlns:xlink="http://www.w3.org/1999/xlink" version="1.1" x="0px" y="0px" viewBox="0 0 30 30" xml:space="preserve" fill="#1c69e6"><g transform="translate(-450 -440)"><g xmlns="http://www.w3.org/2000/svg" xmlns:xlink="http://www.w3.org/1999/xlink"><path d="M455,455c0-5.31,4.166-9.656,9.4-9.971l1.517-1.982C465.613,443.023,465.31,443,465,443c-6.627,0-12,5.373-12,12    c0,4.391,2.365,8.219,5.884,10.31l0.521-2.027C456.749,461.484,455,458.441,455,455z"/><path d="M471.074,444.664l-0.549,2.008C473.22,448.467,475,451.527,475,455c0,5.31-4.166,9.656-9.4,9.969l-1.518,1.984    C464.387,466.977,464.69,467,465,467c6.627,0,12-5.373,12-12C477,450.592,474.616,446.75,471.074,444.664z"/><polygon points="473,452 467,452 467.588,449.842 468.712,445.723 469.24,443.785 470,441 468.142,443.43 466.81,445.172     463.482,449.523 457,458 463,458 462.415,460.145 461.288,464.277 460.76,466.215 460,469 461.858,466.57 463.19,464.828     466.56,460.42   "/></g></g></svg>
